<svg xmlns="http://www.w3.org/2000/svg" viewBox="0 0 1024 1024" width="1024" height="1024">
<g fill="black" stroke="none">
<path d="M 561 660 Z"/>
<path d="M 604 620 L 604 622 L 605 622 L 606 623 L 608 623 L 609 624 L 610 624 L 613 627 L 613 630 L 614 631 L 614 703 L 613 704 L 614 705 L 614 707 L 613 708 L 613 711 L 612 712 L 612 713 L 609 716 L 608 716 L 607 717 L 605 717 L 604 718 L 603 718 L 603 721 L 604 720 L 643 720 L 644 721 L 644 717 L 639 717 L 638 716 L 637 716 L 633 712 L 633 679 L 634 678 L 644 678 L 645 679 L 646 679 L 649 682 L 649 683 L 650 684 L 650 685 L 651 686 L 651 687 L 652 688 L 652 689 L 654 691 L 654 692 L 655 693 L 655 694 L 657 696 L 657 697 L 658 698 L 658 699 L 660 701 L 660 702 L 662 704 L 662 705 L 663 706 L 663 707 L 667 711 L 667 712 L 671 716 L 672 716 L 674 718 L 675 718 L 676 719 L 679 719 L 680 720 L 703 720 L 703 718 L 702 717 L 699 717 L 698 716 L 697 716 L 696 715 L 695 715 L 693 713 L 692 713 L 687 708 L 687 707 L 683 703 L 683 702 L 680 699 L 680 698 L 679 697 L 679 696 L 677 694 L 677 693 L 674 690 L 674 689 L 673 688 L 673 687 L 672 686 L 672 685 L 670 683 L 670 682 L 666 678 L 666 677 L 665 676 L 666 675 L 667 675 L 668 674 L 670 674 L 671 673 L 673 673 L 675 671 L 676 671 L 677 670 L 678 670 L 683 665 L 683 664 L 685 662 L 685 661 L 686 660 L 686 658 L 687 657 L 687 641 L 686 640 L 686 638 L 685 637 L 685 635 L 683 633 L 683 632 L 678 627 L 677 627 L 676 626 L 675 626 L 673 624 L 671 624 L 670 623 L 669 623 L 668 622 L 665 622 L 664 621 L 661 621 L 660 620 Z"/>
<path d="M 509 620 L 509 622 L 511 622 L 512 623 L 514 623 L 515 624 L 516 624 L 519 627 L 519 629 L 520 630 L 520 709 L 519 710 L 519 712 L 515 716 L 514 716 L 513 717 L 511 717 L 510 718 L 509 718 L 509 721 L 510 720 L 585 720 L 585 718 L 586 717 L 586 713 L 587 712 L 587 708 L 588 707 L 588 703 L 589 702 L 589 698 L 590 697 L 590 694 L 587 694 L 587 695 L 586 696 L 586 697 L 585 698 L 585 699 L 583 701 L 583 702 L 578 707 L 577 707 L 575 709 L 574 709 L 573 710 L 572 710 L 571 711 L 570 711 L 569 712 L 566 712 L 565 713 L 562 713 L 561 714 L 540 714 L 539 713 L 539 672 L 540 671 L 554 671 L 555 672 L 558 672 L 559 673 L 561 673 L 564 676 L 564 677 L 565 678 L 565 679 L 566 680 L 566 682 L 567 683 L 567 686 L 570 686 L 570 650 L 567 650 L 567 652 L 566 653 L 566 656 L 565 657 L 565 658 L 564 659 L 564 660 L 562 662 L 561 662 L 559 664 L 557 664 L 556 665 L 540 665 L 539 664 L 539 628 L 540 627 L 541 627 L 542 626 L 559 626 L 560 627 L 563 627 L 564 628 L 566 628 L 567 629 L 568 629 L 570 631 L 571 631 L 578 638 L 578 639 L 579 640 L 579 641 L 581 643 L 581 644 L 584 644 L 584 639 L 583 638 L 583 631 L 582 630 L 582 624 L 581 623 L 581 620 Z"/>
<path d="M 453 620 L 453 622 L 454 623 L 457 623 L 458 624 L 459 624 L 463 628 L 463 711 L 462 712 L 462 713 L 459 716 L 458 716 L 457 717 L 455 717 L 454 718 L 453 718 L 453 720 L 491 720 L 492 721 L 492 718 L 491 717 L 489 717 L 488 716 L 487 716 L 483 712 L 483 628 L 487 624 L 488 624 L 489 623 L 492 623 L 492 621 L 493 620 Z"/>
<path d="M 344 620 L 344 622 L 346 622 L 347 623 L 349 623 L 350 624 L 351 624 L 354 627 L 354 712 L 350 716 L 349 716 L 348 717 L 345 717 L 344 718 L 344 720 L 386 720 L 385 719 L 385 717 L 380 717 L 379 716 L 378 716 L 374 712 L 374 679 L 375 678 L 385 678 L 386 679 L 387 679 L 389 681 L 389 682 L 390 683 L 390 684 L 392 686 L 392 687 L 393 688 L 393 689 L 394 690 L 394 691 L 396 693 L 396 694 L 397 695 L 397 696 L 399 698 L 399 699 L 400 700 L 400 701 L 402 703 L 402 704 L 404 706 L 404 707 L 407 710 L 407 711 L 411 715 L 412 715 L 414 717 L 415 717 L 416 718 L 417 718 L 418 719 L 420 719 L 421 720 L 443 720 L 444 721 L 444 718 L 443 717 L 440 717 L 439 716 L 438 716 L 437 715 L 436 715 L 435 714 L 434 714 L 426 706 L 426 705 L 424 703 L 424 702 L 421 699 L 421 698 L 419 696 L 419 695 L 417 693 L 417 692 L 415 690 L 415 689 L 414 688 L 414 687 L 412 685 L 412 684 L 410 682 L 410 681 L 407 678 L 407 677 L 406 676 L 407 675 L 408 675 L 409 674 L 410 674 L 411 673 L 413 673 L 414 672 L 415 672 L 416 671 L 417 671 L 424 664 L 424 663 L 425 662 L 425 661 L 426 660 L 426 658 L 427 657 L 427 652 L 428 651 L 428 649 L 427 648 L 427 641 L 426 640 L 426 638 L 425 637 L 425 636 L 424 635 L 424 634 L 416 626 L 415 626 L 414 625 L 413 625 L 412 624 L 411 624 L 410 623 L 408 623 L 407 622 L 405 622 L 404 621 L 400 621 L 399 620 Z"/>
<path d="M 232 620 L 232 622 L 233 622 L 234 623 L 236 623 L 237 624 L 238 624 L 240 626 L 240 627 L 241 628 L 241 711 L 240 712 L 240 713 L 237 716 L 236 716 L 235 717 L 232 717 L 231 718 L 231 720 L 273 720 L 273 718 L 272 717 L 267 717 L 266 716 L 265 716 L 262 713 L 262 712 L 261 711 L 261 679 L 262 678 L 272 678 L 273 679 L 274 679 L 276 681 L 276 682 L 278 684 L 278 685 L 279 686 L 279 687 L 280 688 L 280 689 L 281 690 L 281 691 L 283 693 L 283 694 L 284 695 L 284 696 L 285 697 L 285 698 L 287 700 L 287 701 L 289 703 L 289 704 L 291 706 L 291 707 L 294 710 L 294 711 L 299 716 L 300 716 L 302 718 L 304 718 L 305 719 L 307 719 L 308 720 L 332 720 L 332 718 L 331 718 L 330 717 L 327 717 L 326 716 L 325 716 L 324 715 L 323 715 L 321 713 L 320 713 L 315 708 L 315 707 L 311 703 L 311 702 L 309 700 L 309 699 L 307 697 L 307 696 L 305 694 L 305 693 L 303 691 L 303 690 L 301 688 L 301 687 L 299 685 L 299 684 L 298 683 L 298 682 L 295 679 L 295 678 L 293 676 L 294 675 L 295 675 L 296 674 L 298 674 L 299 673 L 300 673 L 301 672 L 302 672 L 304 670 L 305 670 L 311 664 L 311 663 L 312 662 L 312 661 L 313 660 L 313 658 L 314 657 L 314 652 L 315 651 L 315 649 L 314 648 L 314 641 L 313 640 L 313 638 L 312 637 L 312 636 L 311 635 L 311 634 L 310 633 L 310 632 L 306 628 L 305 628 L 303 626 L 302 626 L 301 625 L 300 625 L 299 624 L 298 624 L 297 623 L 296 623 L 295 622 L 292 622 L 291 621 L 288 621 L 287 620 Z"/>
<path d="M 159 620 L 160 621 L 160 623 L 161 624 L 161 626 L 162 627 L 161 628 L 161 630 L 160 631 L 160 632 L 159 633 L 159 634 L 158 635 L 158 636 L 157 637 L 157 639 L 156 640 L 156 642 L 155 643 L 155 644 L 154 645 L 154 647 L 153 648 L 153 649 L 152 650 L 152 652 L 151 653 L 151 655 L 150 656 L 150 657 L 149 658 L 149 660 L 148 661 L 148 662 L 147 663 L 147 665 L 146 666 L 146 667 L 145 668 L 145 670 L 144 671 L 144 673 L 143 674 L 143 675 L 142 676 L 142 678 L 141 679 L 141 681 L 140 682 L 140 683 L 139 684 L 139 686 L 138 687 L 138 689 L 137 690 L 137 691 L 136 692 L 136 694 L 135 695 L 135 697 L 134 698 L 134 699 L 133 700 L 133 701 L 132 702 L 132 704 L 130 706 L 130 707 L 129 708 L 129 709 L 124 714 L 123 714 L 122 715 L 121 715 L 119 717 L 117 717 L 117 719 L 116 720 L 117 721 L 118 720 L 150 720 L 150 718 L 149 717 L 145 717 L 144 716 L 143 716 L 140 713 L 140 712 L 139 711 L 139 706 L 140 705 L 140 702 L 141 701 L 141 698 L 142 697 L 142 696 L 143 695 L 143 693 L 144 692 L 144 691 L 145 690 L 181 690 L 183 692 L 183 694 L 184 695 L 184 696 L 185 697 L 185 698 L 186 699 L 186 701 L 187 702 L 187 703 L 188 704 L 188 706 L 189 707 L 189 708 L 190 709 L 190 712 L 189 713 L 189 714 L 188 715 L 187 715 L 186 716 L 185 716 L 184 717 L 179 717 L 178 718 L 179 719 L 178 720 L 221 720 L 221 718 L 220 717 L 219 717 L 218 716 L 217 716 L 212 711 L 212 710 L 210 708 L 210 707 L 209 706 L 209 705 L 208 704 L 208 703 L 207 702 L 207 701 L 206 700 L 206 699 L 205 698 L 205 696 L 204 695 L 204 694 L 203 693 L 203 691 L 202 690 L 202 689 L 201 688 L 201 686 L 200 685 L 200 683 L 199 682 L 199 681 L 198 680 L 198 678 L 197 677 L 197 676 L 196 675 L 196 673 L 195 672 L 195 670 L 194 669 L 194 668 L 193 667 L 193 665 L 192 664 L 192 662 L 191 661 L 191 660 L 190 659 L 190 657 L 189 656 L 189 655 L 188 654 L 188 652 L 187 651 L 187 650 L 186 649 L 186 647 L 185 646 L 185 645 L 184 644 L 184 642 L 183 641 L 183 640 L 182 639 L 182 638 L 181 637 L 181 635 L 180 634 L 180 633 L 179 632 L 179 631 L 178 630 L 178 629 L 177 628 L 177 627 L 176 626 L 176 625 L 175 624 L 175 622 L 174 621 L 169 621 L 168 620 Z"/>
<path d="M 842 618 L 841 619 L 839 619 L 838 620 L 837 620 L 836 621 L 835 621 L 833 623 L 832 623 L 830 625 L 829 625 L 825 629 L 825 630 L 823 632 L 823 633 L 822 634 L 822 635 L 821 636 L 821 638 L 820 639 L 820 642 L 819 643 L 819 651 L 820 652 L 820 655 L 821 656 L 821 658 L 822 659 L 822 660 L 823 661 L 823 662 L 830 669 L 831 669 L 833 671 L 834 671 L 835 672 L 836 672 L 837 673 L 838 673 L 839 674 L 840 674 L 841 675 L 843 675 L 844 676 L 845 676 L 846 677 L 848 677 L 849 678 L 850 678 L 851 679 L 853 679 L 854 680 L 855 680 L 856 681 L 858 681 L 859 682 L 860 682 L 861 683 L 862 683 L 864 685 L 865 685 L 870 690 L 870 691 L 871 692 L 871 693 L 872 694 L 872 701 L 871 702 L 871 705 L 869 707 L 869 708 L 865 712 L 864 712 L 863 713 L 862 713 L 861 714 L 860 714 L 859 715 L 846 715 L 845 714 L 844 714 L 843 713 L 842 713 L 841 712 L 840 712 L 839 711 L 838 711 L 835 708 L 834 708 L 831 705 L 831 704 L 826 699 L 826 698 L 825 697 L 825 696 L 824 695 L 824 694 L 823 693 L 823 691 L 822 690 L 822 687 L 818 687 L 818 691 L 819 692 L 819 699 L 820 700 L 820 707 L 821 708 L 821 713 L 823 715 L 824 715 L 825 716 L 826 716 L 827 717 L 829 717 L 830 718 L 832 718 L 833 719 L 835 719 L 836 720 L 838 720 L 839 721 L 843 721 L 844 722 L 858 722 L 859 721 L 863 721 L 864 720 L 866 720 L 867 719 L 868 719 L 869 718 L 870 718 L 871 717 L 872 717 L 874 715 L 875 715 L 880 710 L 880 709 L 882 707 L 882 706 L 883 705 L 883 704 L 884 703 L 884 702 L 885 701 L 885 698 L 886 697 L 886 684 L 885 683 L 885 681 L 884 680 L 884 679 L 883 678 L 883 677 L 880 674 L 880 673 L 879 673 L 878 672 L 878 671 L 877 671 L 874 668 L 873 668 L 872 667 L 871 667 L 870 666 L 869 666 L 868 665 L 867 665 L 866 664 L 864 664 L 863 663 L 862 663 L 861 662 L 860 662 L 859 661 L 857 661 L 856 660 L 854 660 L 853 659 L 852 659 L 851 658 L 850 658 L 849 657 L 848 657 L 847 656 L 846 656 L 845 655 L 844 655 L 842 653 L 841 653 L 836 648 L 836 647 L 835 646 L 835 645 L 834 644 L 834 636 L 835 635 L 835 633 L 836 632 L 836 631 L 841 626 L 842 626 L 843 625 L 844 625 L 845 624 L 853 624 L 854 625 L 857 625 L 858 626 L 859 626 L 860 627 L 861 627 L 863 629 L 864 629 L 867 632 L 868 632 L 871 635 L 871 636 L 874 639 L 874 640 L 875 641 L 875 642 L 876 643 L 876 644 L 877 645 L 877 647 L 878 648 L 878 649 L 881 649 L 881 644 L 880 643 L 880 636 L 879 635 L 879 628 L 878 627 L 878 625 L 877 624 L 876 624 L 875 623 L 874 623 L 873 622 L 872 622 L 871 621 L 869 621 L 868 620 L 866 620 L 865 619 L 862 619 L 861 618 Z"/>
<path d="M 746 618 L 745 619 L 742 619 L 741 620 L 739 620 L 738 621 L 736 621 L 735 622 L 734 622 L 733 623 L 732 623 L 731 624 L 730 624 L 728 626 L 727 626 L 717 636 L 717 637 L 716 638 L 716 639 L 714 641 L 714 642 L 713 643 L 713 644 L 712 645 L 712 646 L 711 647 L 711 648 L 710 649 L 710 651 L 709 652 L 709 654 L 708 655 L 708 658 L 707 659 L 707 663 L 706 664 L 706 678 L 707 679 L 707 683 L 708 684 L 708 687 L 709 688 L 709 690 L 710 691 L 710 692 L 711 693 L 711 695 L 713 697 L 713 698 L 714 699 L 714 700 L 717 703 L 717 704 L 726 713 L 727 713 L 728 714 L 729 714 L 731 716 L 732 716 L 733 717 L 734 717 L 735 718 L 736 718 L 737 719 L 739 719 L 740 720 L 743 720 L 744 721 L 748 721 L 749 722 L 761 722 L 762 721 L 767 721 L 768 720 L 771 720 L 772 719 L 774 719 L 775 718 L 777 718 L 778 717 L 779 717 L 780 716 L 781 716 L 782 715 L 783 715 L 785 713 L 786 713 L 790 709 L 791 709 L 792 708 L 792 707 L 796 703 L 796 702 L 798 700 L 798 699 L 799 698 L 799 697 L 800 696 L 800 695 L 801 694 L 801 693 L 802 692 L 802 690 L 803 689 L 803 686 L 804 685 L 804 681 L 805 680 L 805 674 L 806 673 L 806 665 L 805 664 L 805 657 L 804 656 L 804 653 L 803 652 L 803 650 L 802 649 L 802 647 L 801 646 L 801 645 L 800 644 L 800 643 L 799 642 L 799 641 L 797 639 L 797 638 L 796 637 L 796 636 L 791 631 L 791 630 L 790 630 L 785 625 L 784 625 L 782 623 L 781 623 L 780 622 L 778 622 L 777 621 L 776 621 L 775 620 L 772 620 L 771 619 L 768 619 L 767 618 Z"/>
<path d="M 494 252 L 493 253 L 486 253 L 485 254 L 481 254 L 480 255 L 475 255 L 474 256 L 470 256 L 469 257 L 465 257 L 464 258 L 462 258 L 461 259 L 461 260 L 474 260 L 475 259 L 478 259 L 479 260 L 479 268 L 477 270 L 476 270 L 475 271 L 473 271 L 472 272 L 471 272 L 458 285 L 458 286 L 456 288 L 456 289 L 455 290 L 455 291 L 454 292 L 454 293 L 453 294 L 453 295 L 452 296 L 452 297 L 451 298 L 451 300 L 450 301 L 450 302 L 449 303 L 449 305 L 448 306 L 448 307 L 447 308 L 447 310 L 446 311 L 446 313 L 445 314 L 445 315 L 444 316 L 444 318 L 443 319 L 443 320 L 442 321 L 442 323 L 441 324 L 441 325 L 440 326 L 440 327 L 439 328 L 439 330 L 438 331 L 438 332 L 437 333 L 437 334 L 435 336 L 435 337 L 434 338 L 434 339 L 432 341 L 432 342 L 431 343 L 431 344 L 429 346 L 429 347 L 427 349 L 427 350 L 425 352 L 425 353 L 423 355 L 423 356 L 421 358 L 421 359 L 419 361 L 419 362 L 415 366 L 415 367 L 413 369 L 416 369 L 417 370 L 420 370 L 421 371 L 423 371 L 424 372 L 425 372 L 427 374 L 428 374 L 430 376 L 429 377 L 426 377 L 425 376 L 409 376 L 408 377 L 403 377 L 402 378 L 399 378 L 398 379 L 396 379 L 395 380 L 393 380 L 392 381 L 391 381 L 390 382 L 388 382 L 386 384 L 379 384 L 378 385 L 370 385 L 369 386 L 364 386 L 363 387 L 359 387 L 358 388 L 356 388 L 355 389 L 354 389 L 353 390 L 352 390 L 351 391 L 350 391 L 349 392 L 348 392 L 345 395 L 344 395 L 338 401 L 338 402 L 336 404 L 336 405 L 334 407 L 334 408 L 333 409 L 333 410 L 332 411 L 332 413 L 331 414 L 331 415 L 330 416 L 330 419 L 329 420 L 329 423 L 328 424 L 328 429 L 327 430 L 327 436 L 326 437 L 326 443 L 325 444 L 325 449 L 324 450 L 324 453 L 323 454 L 323 457 L 322 458 L 322 461 L 321 462 L 321 464 L 320 465 L 320 467 L 319 468 L 319 470 L 318 471 L 318 472 L 317 473 L 317 474 L 316 475 L 316 476 L 315 477 L 315 478 L 313 480 L 313 481 L 304 490 L 303 490 L 302 491 L 301 491 L 300 492 L 299 492 L 298 493 L 297 493 L 295 495 L 294 495 L 293 496 L 292 496 L 306 496 L 307 495 L 310 495 L 311 494 L 313 494 L 315 492 L 316 492 L 317 493 L 312 498 L 311 498 L 309 500 L 308 500 L 306 502 L 305 502 L 304 503 L 302 503 L 301 504 L 300 504 L 299 505 L 296 505 L 295 506 L 293 506 L 296 506 L 297 507 L 302 507 L 303 506 L 309 506 L 310 505 L 312 505 L 313 504 L 314 504 L 315 503 L 316 503 L 317 502 L 318 502 L 319 501 L 320 501 L 323 498 L 324 498 L 329 493 L 329 492 L 332 489 L 332 488 L 334 486 L 334 485 L 335 484 L 335 483 L 336 482 L 336 481 L 337 480 L 337 479 L 338 478 L 338 476 L 339 475 L 339 474 L 340 473 L 341 474 L 341 480 L 340 481 L 340 484 L 339 485 L 339 487 L 338 488 L 338 489 L 337 490 L 337 491 L 329 499 L 328 499 L 326 501 L 331 501 L 332 500 L 334 500 L 335 499 L 336 499 L 339 496 L 340 496 L 340 495 L 345 490 L 345 489 L 346 488 L 346 487 L 348 485 L 348 484 L 349 483 L 349 482 L 350 481 L 350 480 L 351 479 L 351 478 L 352 477 L 352 475 L 353 474 L 353 473 L 354 472 L 354 469 L 355 468 L 355 464 L 356 463 L 356 456 L 357 455 L 357 423 L 358 422 L 358 419 L 359 418 L 359 416 L 360 415 L 360 414 L 361 413 L 361 412 L 362 411 L 362 410 L 363 409 L 363 408 L 364 407 L 364 406 L 366 404 L 366 403 L 367 402 L 367 401 L 369 399 L 370 400 L 370 401 L 369 402 L 369 404 L 368 405 L 368 409 L 367 410 L 367 416 L 366 417 L 366 423 L 367 424 L 367 435 L 368 436 L 368 441 L 369 442 L 369 448 L 370 449 L 370 457 L 371 458 L 371 474 L 370 475 L 370 478 L 369 479 L 369 480 L 363 486 L 362 486 L 360 488 L 359 488 L 358 489 L 357 489 L 356 490 L 354 490 L 353 491 L 352 491 L 350 493 L 350 494 L 349 495 L 349 496 L 348 497 L 348 503 L 347 504 L 347 508 L 346 509 L 346 512 L 345 513 L 345 516 L 344 517 L 344 520 L 343 521 L 343 523 L 342 524 L 342 527 L 341 528 L 341 530 L 340 531 L 340 533 L 339 534 L 339 536 L 338 537 L 338 539 L 337 540 L 337 542 L 336 543 L 336 544 L 335 545 L 335 546 L 334 547 L 334 548 L 332 550 L 332 554 L 339 561 L 340 561 L 343 564 L 343 567 L 342 568 L 342 574 L 343 575 L 342 576 L 325 576 L 324 577 L 302 577 L 301 578 L 309 578 L 310 579 L 342 579 L 343 580 L 399 580 L 400 581 L 619 581 L 620 580 L 663 580 L 664 579 L 681 579 L 681 578 L 670 578 L 669 577 L 650 577 L 649 576 L 615 576 L 614 575 L 575 575 L 574 574 L 558 574 L 557 573 L 557 572 L 555 570 L 555 569 L 554 568 L 554 567 L 544 557 L 544 556 L 542 554 L 542 552 L 541 551 L 541 537 L 542 536 L 542 528 L 543 527 L 543 524 L 545 522 L 545 521 L 546 520 L 546 519 L 547 518 L 547 517 L 548 516 L 548 515 L 549 514 L 549 511 L 550 510 L 550 508 L 551 507 L 551 506 L 552 505 L 552 504 L 553 503 L 553 502 L 554 501 L 554 500 L 555 499 L 555 498 L 556 497 L 556 496 L 557 495 L 557 494 L 558 493 L 558 492 L 559 491 L 559 490 L 560 489 L 560 487 L 561 486 L 561 485 L 562 484 L 562 483 L 563 482 L 563 481 L 565 479 L 565 478 L 566 477 L 566 476 L 567 475 L 568 476 L 570 476 L 571 477 L 573 477 L 574 478 L 576 478 L 577 479 L 580 479 L 581 480 L 585 480 L 586 481 L 589 481 L 590 482 L 594 482 L 595 483 L 599 483 L 600 484 L 602 484 L 603 485 L 605 485 L 606 486 L 608 486 L 609 487 L 610 487 L 611 488 L 612 488 L 615 491 L 615 492 L 616 493 L 616 501 L 615 502 L 615 504 L 614 505 L 614 506 L 613 507 L 613 508 L 612 509 L 612 511 L 611 512 L 611 513 L 606 518 L 606 520 L 605 521 L 605 523 L 602 526 L 599 526 L 598 525 L 593 525 L 587 531 L 587 533 L 586 534 L 586 536 L 585 537 L 585 539 L 584 540 L 584 543 L 585 542 L 589 542 L 590 543 L 593 543 L 594 542 L 596 542 L 597 541 L 598 541 L 599 540 L 600 540 L 601 539 L 602 539 L 609 532 L 610 532 L 611 531 L 612 531 L 613 530 L 614 530 L 616 528 L 616 527 L 617 526 L 617 524 L 618 523 L 618 522 L 619 521 L 619 519 L 620 518 L 620 517 L 621 516 L 621 515 L 622 514 L 622 513 L 623 512 L 623 510 L 624 509 L 624 508 L 625 507 L 625 506 L 626 505 L 626 504 L 627 503 L 627 502 L 628 501 L 628 500 L 629 499 L 629 498 L 630 497 L 630 496 L 631 495 L 631 494 L 632 493 L 632 491 L 633 490 L 633 484 L 632 483 L 632 479 L 630 477 L 630 476 L 628 474 L 627 474 L 624 471 L 623 471 L 621 469 L 620 469 L 618 467 L 617 467 L 615 465 L 614 465 L 612 463 L 611 463 L 609 461 L 608 461 L 607 460 L 606 460 L 604 458 L 603 458 L 602 457 L 605 454 L 605 453 L 606 452 L 606 451 L 607 450 L 607 449 L 608 448 L 608 447 L 609 446 L 609 443 L 610 442 L 610 438 L 611 437 L 611 416 L 610 415 L 610 406 L 609 405 L 609 401 L 610 400 L 615 400 L 616 401 L 638 401 L 639 400 L 641 400 L 642 399 L 642 396 L 643 395 L 646 395 L 647 396 L 647 397 L 648 397 L 649 398 L 650 398 L 651 397 L 659 397 L 663 393 L 664 393 L 665 392 L 666 392 L 667 391 L 667 390 L 668 389 L 668 371 L 667 370 L 667 365 L 666 364 L 666 360 L 665 359 L 665 356 L 664 355 L 664 349 L 663 348 L 663 344 L 664 343 L 664 338 L 663 337 L 663 334 L 662 333 L 662 331 L 661 330 L 661 328 L 660 327 L 660 325 L 659 324 L 659 323 L 657 321 L 657 320 L 659 318 L 659 317 L 661 315 L 661 313 L 662 312 L 662 305 L 661 304 L 661 302 L 661 303 L 660 304 L 660 306 L 658 308 L 658 309 L 654 313 L 653 312 L 653 311 L 654 310 L 654 306 L 655 305 L 655 299 L 654 300 L 654 301 L 652 303 L 652 304 L 645 311 L 644 311 L 643 312 L 639 312 L 638 311 L 636 311 L 635 310 L 633 310 L 632 309 L 628 309 L 627 308 L 611 308 L 610 309 L 605 309 L 604 310 L 600 310 L 599 311 L 596 311 L 595 312 L 592 312 L 591 313 L 589 313 L 588 314 L 587 314 L 586 315 L 585 315 L 584 316 L 582 316 L 580 318 L 579 318 L 578 319 L 577 319 L 576 320 L 575 320 L 573 322 L 572 322 L 569 325 L 568 325 L 557 336 L 557 337 L 551 343 L 550 343 L 549 344 L 548 344 L 547 345 L 543 345 L 540 342 L 540 341 L 539 341 L 537 339 L 536 339 L 535 338 L 533 338 L 532 337 L 527 337 L 525 335 L 525 332 L 524 331 L 524 329 L 523 328 L 523 326 L 522 325 L 522 323 L 521 322 L 521 320 L 520 319 L 520 317 L 519 316 L 519 314 L 518 313 L 518 311 L 517 310 L 517 308 L 516 307 L 516 305 L 515 304 L 515 303 L 514 302 L 514 300 L 513 299 L 513 298 L 511 296 L 511 295 L 510 294 L 510 293 L 509 292 L 509 291 L 507 289 L 507 288 L 505 286 L 505 285 L 504 284 L 506 282 L 506 280 L 504 278 L 503 278 L 502 277 L 501 277 L 500 276 L 499 276 L 498 275 L 498 274 L 499 273 L 501 273 L 502 274 L 507 274 L 508 273 L 508 271 L 511 268 L 513 268 L 514 267 L 513 266 L 513 263 L 512 262 L 512 259 L 511 258 L 512 257 L 525 257 L 526 256 L 529 256 L 530 255 L 530 254 L 529 253 L 524 253 L 523 252 Z"/>
<path d="M 490 240 L 489 241 L 484 241 L 483 242 L 481 242 L 480 243 L 479 243 L 479 252 L 482 252 L 483 251 L 488 251 L 489 250 L 500 250 L 501 249 L 511 249 L 512 250 L 512 243 L 511 242 L 511 241 L 510 241 L 509 240 Z"/>
</g>
</svg>